<svg width="21" height="19" viewBox="0 0 21 19" fill="none" xmlns="http://www.w3.org/2000/svg">
<path d="M19.5307 1.32471H12.5505V1.85495H7.76139V1.32471H0.827133C0.37032 1.32471 0 1.69503 0 2.15184V17.5847C0 18.0161 0.349733 18.3659 0.781138 18.3659H19.1115C19.7744 18.3659 20.3119 17.8285 20.3119 17.1655V2.10589C20.3119 1.67444 19.9622 1.32471 19.5307 1.32471Z" fill="#ADAFB0"/>
<path d="M19.4849 0H12.5505V0.530241H7.76139V0H0.762142C0.341248 0 0 0.341441 0 0.762673V4.86435H20.3119V0.827615C20.3119 0.370513 19.9416 0 19.4849 0Z" fill="#ADAFB0"/>
<path d="M12.2332 8.24988H8.07934C7.9039 8.24988 7.76172 8.10765 7.76172 7.93225V0H12.5509V7.93225C12.5509 8.10765 12.4086 8.24988 12.2332 8.24988Z" fill="#F5F6F7"/>
</svg>
